:FULLY-SPECIFIED
:FORCE-ALL-JOINTS-BE-3DOF
:DEGREES
81
root 9.25239 16.1412 -25.5641 3.63216 -5.5608 2.28542
lfemur -14.0467 2.01919 -28.3692
ltibia 19.8197 0 0
lfoot -17.9673 6.45788 0
ltoes -0.902511 0 0
rfemur -17.6867 5.38793 14.6292
rtibia 35.2112 0 0
rfoot -12.8813 -6.56822 0
rtoes -15.8599 0 0
lowerback -7.26074 -1.10104 -3.28255
upperback -0.853329 -1.25648 2.04996
thorax 3.35758 -0.694886 3.79003
lowerneck -20.5236 -4.66852 -12.6934
upperneck 19.938 -5.41392 11.9137
head 10.4616 -2.09538 5.60115
lclavicle -1.84108e-14 -3.44039e-15 0
lhumerus -26.1356 -21.0812 88.2269
lradius 35.4531 0 0
lwrist 9.39087 0 0
lhand -10.0737 -23.5232 0
lfingers 7.12502 0 0
lthumb 15.8909 5.57212 0
rclavicle -1.84108e-14 -3.44039e-15 0
rhumerus -44.69 14.1304 -90.323
rradius 41.7289 0 0
rwrist -22.6153 0 0
rhand -29.3932 -25.1941 0
rfingers 7.12502 0 0
rthumb -2.73146 -55.1565 0
82
root 9.26727 16.1503 -25.4514 3.58235 -5.29008 2.39848
lfemur -13.1819 1.87593 -28.5055
ltibia 19.4019 0 0
lfoot -18.0764 6.42658 0
ltoes -0.960341 0 0
rfemur -18.7104 5.43851 14.5565
rtibia 35.4283 0 0
rfoot -13.4069 -6.70441 0
rtoes -15.9234 0 0
lowerback -7.27749 -1.17317 -3.34972
upperback -0.812969 -1.3474 2.03257
thorax 3.41681 -0.742104 3.80185
lowerneck -20.4914 -4.68809 -12.7
upperneck 19.9824 -5.43379 11.8579
head 10.4728 -2.11233 5.57967
lclavicle -1.90857e-14 -2.99345e-15 0
lhumerus -25.7224 -21.4158 88.2094
lradius 35.7444 0 0
lwrist 9.6359 0 0
lhand -10.4425 -23.6901 0
lfingers 7.12502 0 0
lthumb 15.5368 5.44507 0
rclavicle -1.90857e-14 -2.99345e-15 0
rhumerus -44.662 13.9585 -90.139
rradius 41.5224 0 0
rwrist -22.543 0 0
rhand -29.4078 -25.1377 0
rfingers 7.12502 0 0
rthumb -2.7456 -55.0999 0
83
root 9.2816 16.1594 -25.3384 3.53532 -5.01788 2.50818
lfemur -12.3244 1.73848 -28.6314
ltibia 18.9998 0 0
lfoot -18.1691 6.3943 0
ltoes -1.02005 0 0
rfemur -19.7202 5.48608 14.4885
rtibia 35.6414 0 0
rfoot -13.9194 -6.83515 0
rtoes -15.9836 0 0
lowerback -7.29305 -1.24471 -3.41462
upperback -0.773872 -1.43773 2.01614
thorax 3.47397 -0.788956 3.81349
lowerneck -20.4595 -4.70806 -12.7073
upperneck 20.024 -5.45424 11.8044
head 10.4832 -2.12934 5.55897
lclavicle -1.97168e-14 -2.5673e-15 0
lhumerus -25.3246 -21.7312 88.1923
lradius 36.0201 0 0
lwrist 9.86421 0 0
lhand -10.8007 -23.8515 0
lfingers 7.12502 0 0
lthumb 15.1928 5.32254 0
rclavicle -1.97168e-14 -2.5673e-15 0
rhumerus -44.6357 13.7862 -89.9545
rradius 41.3144 0 0
rwrist -22.469 0 0
rhand -29.4226 -25.0817 0
rfingers 7.12502 0 0
rthumb -2.75989 -55.0436 0
84
root 9.29535 16.1683 -25.225 3.49104 -4.74468 2.61446
lfemur -11.4754 1.60688 -28.7471
ltibia 18.6136 0 0
lfoot -18.2458 6.36112 0
ltoes -1.08148 0 0
rfemur -20.7149 5.53064 14.425
rtibia 35.8504 0 0
rfoot -14.4183 -6.96042 0
rtoes -16.0407 0 0
lowerback -7.30743 -1.31556 -3.47719
upperback -0.736058 -1.52734 2.00069
thorax 3.52905 -0.835383 3.82495
lowerneck -20.428 -4.72838 -12.7153
upperneck 20.063 -5.47521 11.753
head 10.493 -2.14638 5.53904
lclavicle -2.03044e-14 -2.16194e-15 0
lhumerus -24.9422 -22.0277 88.1756
lradius 36.2803 0 0
lwrist 10.076 0 0
lhand -11.1481 -24.0074 0
lfingers 7.12502 0 0
lthumb 14.8593 5.20457 0
rclavicle -2.03044e-14 -2.16194e-15 0
rhumerus -44.6111 13.6135 -89.77
rradius 41.1054 0 0
rwrist -22.3935 0 0
rhand -29.4375 -25.026 0
rfingers 7.12502 0 0
rthumb -2.77431 -54.9878 0
85
root 9.30849 16.1771 -25.1111 3.44952 -4.47092 2.71726
lfemur -10.6358 1.48115 -28.8527
ltibia 18.2434 0 0
lfoot -18.3068 6.32713 0
ltoes -1.14449 0 0
rfemur -21.6936 5.57222 14.366
rtibia 36.0551 0 0
rfoot -14.9033 -7.08018 0
rtoes -16.0946 0 0
lowerback -7.32065 -1.38563 -3.53743
upperback -0.699548 -1.61611 1.9862
thorax 3.58203 -0.881323 3.83622
lowerneck -20.3969 -4.74901 -12.7239
upperneck 20.0992 -5.49666 11.7039
head 10.502 -2.16342 5.5199
lclavicle -2.0849e-14 -1.77736e-15 0
lhumerus -24.5755 -22.3054 88.1594
lradius 36.5252 0 0
lwrist 10.2714 0 0
lhand -11.4845 -24.1576 0
lfingers 7.12502 0 0
lthumb 14.5362 5.09121 0
rclavicle -2.0849e-14 -1.77736e-15 0
rhumerus -44.5881 13.4409 -89.5856
rradius 40.8956 0 0
rwrist -22.3166 0 0
rhand -29.4526 -24.9709 0
rfingers 7.12502 0 0
rthumb -2.78882 -54.9325 0
86
root 9.321 16.1858 -24.9967 3.41072 -4.19707 2.81652
lfemur -9.80681 1.36132 -28.9484
ltibia 17.8893 0 0
lfoot -18.3526 6.29241 0
ltoes -1.20893 0 0
rfemur -22.655 5.61085 14.3115
rtibia 36.2552 0 0
rfoot -15.374 -7.1944 0
rtoes -16.1454 0 0
lowerback -7.33272 -1.45482 -3.5953
upperback -0.664361 -1.70394 1.97266
thorax 3.63288 -0.926718 3.84727
lowerneck -20.3663 -4.7699 -12.7332
upperneck 20.1327 -5.51854 11.6571
head 10.5104 -2.18042 5.50155
lclavicle -2.1351e-14 -1.41357e-15 0
lhumerus -24.2245 -22.5644 88.1436
lradius 36.7547 0 0
lwrist 10.4506 0 0
lhand -11.8097 -24.3022 0
lfingers 7.12502 0 0
lthumb 14.224 4.98251 0
rclavicle -2.1351e-14 -1.41357e-15 0
rhumerus -44.5668 13.2685 -89.4017
rradius 40.6855 0 0
rwrist -22.2385 0 0
rhand -29.4677 -24.9164 0
rfingers 7.12502 0 0
rthumb -2.80341 -54.8778 0
87
root 9.33284 16.1943 -24.8817 3.37465 -3.9236 2.91216
lfemur -8.98947 1.24743 -29.0342
ltibia 17.5514 0 0
lfoot -18.3834 6.25703 0
ltoes -1.27464 0 0
rfemur -23.598 5.64655 14.2615
rtibia 36.4505 0 0
rfoot -15.83 -7.30306 0
rtoes -16.193 0 0
lowerback -7.34365 -1.52306 -3.65078
upperback -0.630519 -1.79069 1.96008
thorax 3.68158 -0.971507 3.85811
lowerneck -20.3363 -4.79102 -12.743
upperneck 20.1636 -5.54079 11.6125
head 10.5181 -2.19738 5.484
lclavicle -2.18107e-14 -1.07057e-15 0
lhumerus -23.8893 -22.8047 88.1282
lradius 36.969 0 0
lwrist 10.6138 0 0
lhand -12.1235 -24.4409 0
lfingers 7.12502 0 0
lthumb 13.9228 4.87852 0
rclavicle -2.18107e-14 -1.07057e-15 0
rhumerus -44.5472 13.0967 -89.2185
rradius 40.4754 0 0
rwrist -22.1594 0 0
rhand -29.4828 -24.8625 0
rfingers 7.12502 0 0
rthumb -2.81803 -54.8237 0
88
root 9.344 16.2027 -24.7659 3.34127 -3.65097 3.00414
lfemur -8.18487 1.13949 -29.1104
ltibia 17.2299 0 0
lfoot -18.3997 6.22107 0
ltoes -1.34147 0 0
rfemur -24.5216 5.67933 14.2158
rtibia 36.6409 0 0
rfoot -16.271 -7.40612 0
rtoes -16.2375 0 0
lowerback -7.35346 -1.59025 -3.70383
upperback -0.598041 -1.87625 1.94844
thorax 3.72811 -1.01563 3.86872
lowerneck -20.3067 -4.81231 -12.7534
upperneck 20.1918 -5.56338 11.5702
head 10.5251 -2.21425 5.46726
lclavicle -2.22286e-14 -7.4836e-16 0
lhumerus -23.5701 -23.0266 88.1133
lradius 37.168 0 0
lwrist 10.7612 0 0
lhand -12.4256 -24.5738 0
lfingers 7.12502 0 0
lthumb 13.6328 4.77927 0
rclavicle -2.22286e-14 -7.4836e-16 0
rhumerus -44.5292 12.9258 -89.0365
rradius 40.2657 0 0
rwrist -22.0794 0 0
rhand -29.498 -24.8094 0
rfingers 7.12502 0 0
rthumb -2.83268 -54.7704 0
